<mxfile host="app.diagrams.net" modified="2021-03-04T12:12:48.081Z" agent="5.0 (Windows NT 10.0; Win64; x64) AppleWebKit/537.36 (KHTML, like Gecko) Chrome/89.0.4389.72 Safari/537.36" etag="jgd1yZ3AuDmXkfeotrtn" version="14.4.4" type="github">
  <diagram id="R2lEEEUBdFMjLlhIrx00" name="Page-1">
    <mxGraphModel dx="2574" dy="1444" grid="1" gridSize="10" guides="1" tooltips="1" connect="1" arrows="1" fold="1" page="1" pageScale="1" pageWidth="850" pageHeight="1100" math="0" shadow="0" extFonts="Permanent Marker^https://fonts.googleapis.com/css?family=Permanent+Marker">
      <root>
        <mxCell id="0" />
        <mxCell id="1" parent="0" />
        <mxCell id="XCcpm6wxmqkd0gBcDE0m-5" value="User" style="shape=table;startSize=30;container=1;collapsible=1;childLayout=tableLayout;fixedRows=1;rowLines=0;fontStyle=1;align=center;resizeLast=1;" vertex="1" parent="1">
          <mxGeometry x="40" y="40" width="180" height="100" as="geometry" />
        </mxCell>
        <mxCell id="XCcpm6wxmqkd0gBcDE0m-6" value="" style="shape=partialRectangle;collapsible=0;dropTarget=0;pointerEvents=0;fillColor=none;top=0;left=0;bottom=1;right=0;points=[[0,0.5],[1,0.5]];portConstraint=eastwest;" vertex="1" parent="XCcpm6wxmqkd0gBcDE0m-5">
          <mxGeometry y="30" width="180" height="30" as="geometry" />
        </mxCell>
        <mxCell id="XCcpm6wxmqkd0gBcDE0m-7" value="PK" style="shape=partialRectangle;connectable=0;fillColor=none;top=0;left=0;bottom=0;right=0;fontStyle=1;overflow=hidden;" vertex="1" parent="XCcpm6wxmqkd0gBcDE0m-6">
          <mxGeometry width="30" height="30" as="geometry" />
        </mxCell>
        <mxCell id="XCcpm6wxmqkd0gBcDE0m-8" value="ID" style="shape=partialRectangle;connectable=0;fillColor=none;top=0;left=0;bottom=0;right=0;align=left;spacingLeft=6;fontStyle=5;overflow=hidden;" vertex="1" parent="XCcpm6wxmqkd0gBcDE0m-6">
          <mxGeometry x="30" width="150" height="30" as="geometry" />
        </mxCell>
        <mxCell id="XCcpm6wxmqkd0gBcDE0m-9" value="" style="shape=partialRectangle;collapsible=0;dropTarget=0;pointerEvents=0;fillColor=none;top=0;left=0;bottom=0;right=0;points=[[0,0.5],[1,0.5]];portConstraint=eastwest;" vertex="1" parent="XCcpm6wxmqkd0gBcDE0m-5">
          <mxGeometry y="60" width="180" height="30" as="geometry" />
        </mxCell>
        <mxCell id="XCcpm6wxmqkd0gBcDE0m-10" value="" style="shape=partialRectangle;connectable=0;fillColor=none;top=0;left=0;bottom=0;right=0;editable=1;overflow=hidden;" vertex="1" parent="XCcpm6wxmqkd0gBcDE0m-9">
          <mxGeometry width="30" height="30" as="geometry" />
        </mxCell>
        <mxCell id="XCcpm6wxmqkd0gBcDE0m-11" value="email" style="shape=partialRectangle;connectable=0;fillColor=none;top=0;left=0;bottom=0;right=0;align=left;spacingLeft=6;overflow=hidden;" vertex="1" parent="XCcpm6wxmqkd0gBcDE0m-9">
          <mxGeometry x="30" width="150" height="30" as="geometry" />
        </mxCell>
        <mxCell id="XCcpm6wxmqkd0gBcDE0m-18" value="Role" style="shape=table;startSize=30;container=1;collapsible=1;childLayout=tableLayout;fixedRows=1;rowLines=0;fontStyle=1;align=center;resizeLast=1;" vertex="1" parent="1">
          <mxGeometry x="450" y="100" width="180" height="130" as="geometry" />
        </mxCell>
        <mxCell id="XCcpm6wxmqkd0gBcDE0m-19" value="" style="shape=partialRectangle;collapsible=0;dropTarget=0;pointerEvents=0;fillColor=none;top=0;left=0;bottom=1;right=0;points=[[0,0.5],[1,0.5]];portConstraint=eastwest;" vertex="1" parent="XCcpm6wxmqkd0gBcDE0m-18">
          <mxGeometry y="30" width="180" height="30" as="geometry" />
        </mxCell>
        <mxCell id="XCcpm6wxmqkd0gBcDE0m-20" value="PK" style="shape=partialRectangle;connectable=0;fillColor=none;top=0;left=0;bottom=0;right=0;fontStyle=1;overflow=hidden;" vertex="1" parent="XCcpm6wxmqkd0gBcDE0m-19">
          <mxGeometry width="30" height="30" as="geometry" />
        </mxCell>
        <mxCell id="XCcpm6wxmqkd0gBcDE0m-21" value="ID" style="shape=partialRectangle;connectable=0;fillColor=none;top=0;left=0;bottom=0;right=0;align=left;spacingLeft=6;fontStyle=5;overflow=hidden;" vertex="1" parent="XCcpm6wxmqkd0gBcDE0m-19">
          <mxGeometry x="30" width="150" height="30" as="geometry" />
        </mxCell>
        <mxCell id="XCcpm6wxmqkd0gBcDE0m-22" value="" style="shape=partialRectangle;collapsible=0;dropTarget=0;pointerEvents=0;fillColor=none;top=0;left=0;bottom=0;right=0;points=[[0,0.5],[1,0.5]];portConstraint=eastwest;" vertex="1" parent="XCcpm6wxmqkd0gBcDE0m-18">
          <mxGeometry y="60" width="180" height="30" as="geometry" />
        </mxCell>
        <mxCell id="XCcpm6wxmqkd0gBcDE0m-23" value="" style="shape=partialRectangle;connectable=0;fillColor=none;top=0;left=0;bottom=0;right=0;editable=1;overflow=hidden;" vertex="1" parent="XCcpm6wxmqkd0gBcDE0m-22">
          <mxGeometry width="30" height="30" as="geometry" />
        </mxCell>
        <mxCell id="XCcpm6wxmqkd0gBcDE0m-24" value="name" style="shape=partialRectangle;connectable=0;fillColor=none;top=0;left=0;bottom=0;right=0;align=left;spacingLeft=6;overflow=hidden;" vertex="1" parent="XCcpm6wxmqkd0gBcDE0m-22">
          <mxGeometry x="30" width="150" height="30" as="geometry" />
        </mxCell>
        <object label="Task" id="XCcpm6wxmqkd0gBcDE0m-25">
          <mxCell style="shape=table;startSize=30;container=1;collapsible=1;childLayout=tableLayout;fixedRows=1;rowLines=0;fontStyle=1;align=center;resizeLast=1;dashed=1;" vertex="1" parent="1">
            <mxGeometry x="150" y="300" width="180" height="130" as="geometry" />
          </mxCell>
        </object>
        <mxCell id="XCcpm6wxmqkd0gBcDE0m-26" value="" style="shape=partialRectangle;collapsible=0;dropTarget=0;pointerEvents=0;fillColor=none;top=0;left=0;bottom=1;right=0;points=[[0,0.5],[1,0.5]];portConstraint=eastwest;" vertex="1" parent="XCcpm6wxmqkd0gBcDE0m-25">
          <mxGeometry y="30" width="180" height="30" as="geometry" />
        </mxCell>
        <mxCell id="XCcpm6wxmqkd0gBcDE0m-27" value="PK" style="shape=partialRectangle;connectable=0;fillColor=none;top=0;left=0;bottom=0;right=0;fontStyle=1;overflow=hidden;" vertex="1" parent="XCcpm6wxmqkd0gBcDE0m-26">
          <mxGeometry width="30" height="30" as="geometry" />
        </mxCell>
        <mxCell id="XCcpm6wxmqkd0gBcDE0m-28" value="ID" style="shape=partialRectangle;connectable=0;fillColor=none;top=0;left=0;bottom=0;right=0;align=left;spacingLeft=6;fontStyle=5;overflow=hidden;" vertex="1" parent="XCcpm6wxmqkd0gBcDE0m-26">
          <mxGeometry x="30" width="150" height="30" as="geometry" />
        </mxCell>
        <mxCell id="XCcpm6wxmqkd0gBcDE0m-29" value="" style="shape=partialRectangle;collapsible=0;dropTarget=0;pointerEvents=0;fillColor=none;top=0;left=0;bottom=0;right=0;points=[[0,0.5],[1,0.5]];portConstraint=eastwest;" vertex="1" parent="XCcpm6wxmqkd0gBcDE0m-25">
          <mxGeometry y="60" width="180" height="30" as="geometry" />
        </mxCell>
        <mxCell id="XCcpm6wxmqkd0gBcDE0m-30" value="" style="shape=partialRectangle;connectable=0;fillColor=none;top=0;left=0;bottom=0;right=0;editable=1;overflow=hidden;" vertex="1" parent="XCcpm6wxmqkd0gBcDE0m-29">
          <mxGeometry width="30" height="30" as="geometry" />
        </mxCell>
        <mxCell id="XCcpm6wxmqkd0gBcDE0m-31" value="assignee" style="shape=partialRectangle;connectable=0;fillColor=none;top=0;left=0;bottom=0;right=0;align=left;spacingLeft=6;overflow=hidden;" vertex="1" parent="XCcpm6wxmqkd0gBcDE0m-29">
          <mxGeometry x="30" width="150" height="30" as="geometry" />
        </mxCell>
        <mxCell id="XCcpm6wxmqkd0gBcDE0m-35" value="" style="shape=partialRectangle;collapsible=0;dropTarget=0;pointerEvents=0;fillColor=none;top=0;left=0;bottom=0;right=0;points=[[0,0.5],[1,0.5]];portConstraint=eastwest;" vertex="1" parent="1">
          <mxGeometry x="130" y="570" width="180" height="30" as="geometry" />
        </mxCell>
        <mxCell id="XCcpm6wxmqkd0gBcDE0m-36" value="" style="shape=partialRectangle;connectable=0;fillColor=none;top=0;left=0;bottom=0;right=0;editable=1;overflow=hidden;" vertex="1" parent="XCcpm6wxmqkd0gBcDE0m-35">
          <mxGeometry width="30" height="30" as="geometry" />
        </mxCell>
        <mxCell id="XCcpm6wxmqkd0gBcDE0m-42" value="status" style="shape=partialRectangle;connectable=0;fillColor=none;top=0;left=0;bottom=0;right=0;align=left;spacingLeft=6;overflow=hidden;" vertex="1" parent="1">
          <mxGeometry x="180" y="390" width="150" height="30" as="geometry" />
        </mxCell>
        <mxCell id="XCcpm6wxmqkd0gBcDE0m-43" value="canReassign" style="shape=partialRectangle;connectable=0;fillColor=none;top=0;left=0;bottom=0;right=0;align=left;spacingLeft=6;overflow=hidden;" vertex="1" parent="1">
          <mxGeometry x="480" y="190" width="150" height="30" as="geometry" />
        </mxCell>
        <mxCell id="XCcpm6wxmqkd0gBcDE0m-44" style="edgeStyle=orthogonalEdgeStyle;rounded=0;orthogonalLoop=1;jettySize=auto;html=1;entryX=0;entryY=0.5;entryDx=0;entryDy=0;endArrow=ERoneToMany;endFill=0;startArrow=ERoneToMany;startFill=0;" edge="1" parent="1" source="XCcpm6wxmqkd0gBcDE0m-6" target="XCcpm6wxmqkd0gBcDE0m-19">
          <mxGeometry relative="1" as="geometry" />
        </mxCell>
        <mxCell id="XCcpm6wxmqkd0gBcDE0m-46" style="edgeStyle=orthogonalEdgeStyle;rounded=0;orthogonalLoop=1;jettySize=auto;html=1;entryX=0;entryY=0.5;entryDx=0;entryDy=0;startArrow=ERoneToMany;startFill=0;endArrow=ERoneToMany;endFill=0;exitX=0;exitY=0.5;exitDx=0;exitDy=0;" edge="1" parent="1" source="XCcpm6wxmqkd0gBcDE0m-29" target="XCcpm6wxmqkd0gBcDE0m-6">
          <mxGeometry relative="1" as="geometry" />
        </mxCell>
      </root>
    </mxGraphModel>
  </diagram>
</mxfile>
